<svg xmlns="http://www.w3.org/2000/svg" viewBox="0 0 24 24" aria-hidden="true" focusable="false">
  <path d="M16.75 3h-9.5A4.25 4.25 0 0 0 3 7.25v9.5A4.25 4.25 0 0 0 7.25 21h9.5A4.25 4.25 0 0 0 21 16.75v-9.5A4.25 4.25 0 0 0 16.75 3Zm2.75 13.75a2.75 2.75 0 0 1-2.75 2.75h-9.5A2.75 2.75 0 0 1 4.5 16.75v-9.5A2.75 2.75 0 0 1 7.25 4.5h9.5a2.75 2.75 0 0 1 2.75 2.75v9.5Z"/>
  <path d="M12 7.25A4.75 4.75 0 1 0 16.75 12 4.76 4.76 0 0 0 12 7.25Zm0 8A3.25 3.25 0 1 1 15.25 12 3.25 3.25 0 0 1 12 15.25Z"/>
  <circle cx="17.2" cy="6.8" r="1.1"/>
</svg>
